<svg xmlns="http://www.w3.org/2000/svg" width="48" height="48" viewBox="0 0 48 48">
  <g id="Group_9295" data-name="Group 9295" transform="translate(15463 622)">
    <circle id="Ellipse_3550" data-name="Ellipse 3550" cx="24" cy="24" r="24" transform="translate(-15463 -622)" fill="#d7242e" opacity="0.03"/>
    <g id="face_black_24dp" transform="translate(-15451 -610)">
      <path id="Path_43970" data-name="Path 43970" d="M0,0H24V24H0Z" fill="none"/>
      <path id="Path_43971" data-name="Path 43971" d="M10.25,13A1.25,1.25,0,1,1,9,11.75,1.25,1.25,0,0,1,10.25,13ZM15,11.75A1.25,1.25,0,1,0,16.25,13,1.25,1.25,0,0,0,15,11.75ZM22,12A10,10,0,1,1,12,2,10,10,0,0,1,22,12ZM10.66,4.12A7.99,7.99,0,0,0,17.5,8a8.346,8.346,0,0,0,1.34-.12A7.99,7.99,0,0,0,12,4,8.346,8.346,0,0,0,10.66,4.12ZM4.42,9.47A8.046,8.046,0,0,0,8.08,5.03,8.046,8.046,0,0,0,4.42,9.47ZM20,12a7.88,7.88,0,0,0-.33-2.24A10.306,10.306,0,0,1,17.5,10,10,10,0,0,1,9.74,6.31,10.016,10.016,0,0,1,4,11.86.653.653,0,0,1,4,12a8,8,0,0,0,16,0Z" fill="#d7242e"/>
    </g>
  </g>
</svg>
