<svg id="downloading_black_24dp" xmlns="http://www.w3.org/2000/svg" width="24" height="24" viewBox="0 0 24 24">
  <g id="Group_8755" data-name="Group 8755">
    <rect id="Rectangle_14776" data-name="Rectangle 14776" width="24" height="24" fill="none"/>
  </g>
  <g id="Group_8757" data-name="Group 8757">
    <g id="Group_8756" data-name="Group 8756">
      <path id="Path_42164" data-name="Path 42164" d="M18.32,4.26A9.949,9.949,0,0,0,13,2.05V4.07a7.941,7.941,0,0,1,3.9,1.62ZM19.93,11h2.02a9.949,9.949,0,0,0-2.21-5.32L18.31,7.1A7.941,7.941,0,0,1,19.93,11Zm-1.62,5.9,1.43,1.43a9.981,9.981,0,0,0,2.21-5.32H19.93A7.945,7.945,0,0,1,18.31,16.9ZM13,19.93v2.02a9.949,9.949,0,0,0,5.32-2.21l-1.43-1.43A7.868,7.868,0,0,1,13,19.93Zm-2,0v2.02a10,10,0,0,1,0-19.9V4.07a7.992,7.992,0,0,0,0,15.86Z" fill="#fd9933"/>
    </g>
  </g>
</svg>
