<svg xmlns="http://www.w3.org/2000/svg" width="122.198" height="489.885" viewBox="0 0 122.198 489.885">
  <g id="Group_9299" data-name="Group 9299" transform="translate(-1243.803 -135.655)">
    <g id="freepik--credit-card--inject-2" transform="translate(1155.238 -96.785)">
      <rect id="Rectangle_14904" data-name="Rectangle 14904" width="0.325" height="3.668" transform="translate(102.26 283.295)" fill="#fd9933"/>
      <rect id="Rectangle_14905" data-name="Rectangle 14905" width="0.325" height="3.668" transform="translate(102.26 283.295)" opacity="0.1"/>
      <rect id="Rectangle_14906" data-name="Rectangle 14906" width="0.325" height="5.026" transform="translate(197.934 254.237)" fill="#fd9933"/>
      <rect id="Rectangle_14907" data-name="Rectangle 14907" width="0.325" height="2.726" transform="translate(197.934 261.898)" fill="#fd9933"/>
      <rect id="Rectangle_14908" data-name="Rectangle 14908" width="0.325" height="5.026" transform="translate(197.934 254.237)" opacity="0.1"/>
      <rect id="Rectangle_14909" data-name="Rectangle 14909" width="0.325" height="2.726" transform="translate(197.934 261.898)" opacity="0.1"/>
      <rect id="Rectangle_14910" data-name="Rectangle 14910" width="93.728" height="58.919" rx="15.05" transform="translate(103.397 232.44)" fill="#fd9933"/>
      <rect id="Rectangle_14911" data-name="Rectangle 14911" width="93.728" height="58.919" rx="15.05" transform="translate(103.397 232.44)" opacity="0.2"/>
      <circle id="Ellipse_3545" data-name="Ellipse 3545" cx="6.066" cy="6.066" r="6.066" transform="translate(175.887 240.825)" opacity="0.2"/>
      <circle id="Ellipse_3546" data-name="Ellipse 3546" cx="6.066" cy="6.066" r="6.066" transform="translate(168.057 240.825)" fill="#fd9933"/>
      <rect id="Rectangle_14912" data-name="Rectangle 14912" width="18.658" height="13.655" rx="6.48" transform="translate(112.504 252.957)" fill="#fd9933"/>
      <rect id="Rectangle_14913" data-name="Rectangle 14913" width="18.658" height="13.655" rx="6.48" transform="translate(112.504 252.957)" fill="#fff" opacity="0.3"/>
      <rect id="Rectangle_14914" data-name="Rectangle 14914" width="28.041" height="2.979" rx="1.49" transform="translate(112.504 239.337)" fill="#fd9933"/>
      <rect id="Rectangle_14915" data-name="Rectangle 14915" width="28.041" height="2.979" rx="1.49" transform="translate(112.504 239.337)" fill="#fff" opacity="0.3"/>
      <rect id="Rectangle_14916" data-name="Rectangle 14916" width="15.643" height="6.417" rx="3.208" transform="translate(112.504 273.389)" fill="#fd9933"/>
      <rect id="Rectangle_14917" data-name="Rectangle 14917" width="15.643" height="6.417" rx="3.208" transform="translate(112.504 273.389)" fill="#fff" opacity="0.3"/>
      <rect id="Rectangle_14918" data-name="Rectangle 14918" width="15.643" height="6.417" rx="3.208" transform="translate(132.459 273.389)" fill="#fd9933"/>
      <rect id="Rectangle_14919" data-name="Rectangle 14919" width="15.643" height="6.417" rx="3.208" transform="translate(132.459 273.389)" fill="#fff" opacity="0.3"/>
      <rect id="Rectangle_14920" data-name="Rectangle 14920" width="15.643" height="6.417" rx="3.208" transform="translate(152.417 273.389)" fill="#fd9933"/>
      <rect id="Rectangle_14921" data-name="Rectangle 14921" width="15.643" height="6.417" rx="3.208" transform="translate(152.417 273.389)" fill="#fff" opacity="0.3"/>
      <rect id="Rectangle_14922" data-name="Rectangle 14922" width="15.643" height="6.417" rx="3.208" transform="translate(172.371 273.389)" fill="#fd9933"/>
      <rect id="Rectangle_14923" data-name="Rectangle 14923" width="15.643" height="6.417" rx="3.208" transform="translate(172.371 273.389)" fill="#fff" opacity="0.3"/>
    </g>
    <g id="freepik--Coins--inject-2" transform="translate(1211.771 108.94)">
      <circle id="Ellipse_3535" data-name="Ellipse 3535" cx="30.56" cy="30.56" r="30.56" transform="translate(32.032 175.416) rotate(-45)" fill="#fd9933"/>
      <circle id="Ellipse_3536" data-name="Ellipse 3536" cx="30.56" cy="30.56" r="30.56" transform="translate(32.032 175.416) rotate(-45)" opacity="0.4"/>
      <circle id="Ellipse_3537" data-name="Ellipse 3537" cx="25.662" cy="25.662" r="25.662" transform="translate(45.64 196.399) rotate(-80.32)" opacity="0.2"/>
      <circle id="Ellipse_3538" data-name="Ellipse 3538" cx="24.695" cy="24.695" r="24.695" transform="translate(50.78 199.06) rotate(-85.996)" fill="#fd9933"/>
      <circle id="Ellipse_3539" data-name="Ellipse 3539" cx="24.695" cy="24.695" r="24.695" transform="translate(50.78 199.06) rotate(-85.996)" opacity="0.4"/>
      <path id="Path_43879" data-name="Path 43879" d="M109.644,213.372l1.608,6.968a1.981,1.981,0,0,1-.26,1.574,2.071,2.071,0,0,1-1.315.931l-6.128,1.416,1.128,4.9a1.958,1.958,0,0,1-.271,1.563,1.981,1.981,0,0,1-1.315.892,2.076,2.076,0,0,1-1.6-.248,1.964,1.964,0,0,1-.925-1.286l-1.128-4.96-6.077,1.4a2,2,0,0,1-1.546-.26,1.975,1.975,0,0,1-.931-1.286,2.009,2.009,0,0,1,.26-1.557,1.975,1.975,0,0,1,1.286-.92l14.219-3.278-.666-2.895L91.808,219.6a2,2,0,0,1-1.557-.243,1.975,1.975,0,0,1-.92-1.3l-1.6-6.94a2.065,2.065,0,0,1,1.546-2.477l6.049-1.394-1.128-4.909a2,2,0,0,1,.237-1.54,2.026,2.026,0,0,1,1.377-.948,1.98,1.98,0,0,1,1.54.26,2.014,2.014,0,0,1,.914,1.292l1.128,4.9,6.207-1.422a2.048,2.048,0,0,1,1.586.265,1.964,1.964,0,0,1,.937,1.27,2.139,2.139,0,0,1-1.586,2.533l-14.219,3.278.621,2.878,14.168-3.267a2.048,2.048,0,0,1,1.586.265A1.947,1.947,0,0,1,109.644,213.372Z" transform="translate(-24.247 -40.308)" fill="#fd9933"/>
      <g id="Group_9194" data-name="Group 9194" transform="translate(63.428 159.483)" opacity="0.7">
        <path id="Path_43880" data-name="Path 43880" d="M109.644,213.372l1.608,6.968a1.981,1.981,0,0,1-.26,1.574,2.071,2.071,0,0,1-1.315.931l-6.128,1.416,1.128,4.9a1.958,1.958,0,0,1-.271,1.563,1.981,1.981,0,0,1-1.315.892,2.076,2.076,0,0,1-1.6-.248,1.964,1.964,0,0,1-.925-1.286l-1.128-4.96-6.077,1.4a2,2,0,0,1-1.546-.26,1.975,1.975,0,0,1-.931-1.286,2.009,2.009,0,0,1,.26-1.557,1.975,1.975,0,0,1,1.286-.92l14.219-3.278-.666-2.895L91.808,219.6a2,2,0,0,1-1.557-.243,1.975,1.975,0,0,1-.92-1.3l-1.6-6.94a2.065,2.065,0,0,1,1.546-2.477l6.049-1.394-1.128-4.909a2,2,0,0,1,.237-1.54,2.026,2.026,0,0,1,1.377-.948,1.98,1.98,0,0,1,1.54.26,2.014,2.014,0,0,1,.914,1.292l1.128,4.9,6.207-1.422a2.048,2.048,0,0,1,1.586.265,1.964,1.964,0,0,1,.937,1.27,2.139,2.139,0,0,1-1.586,2.533l-14.219,3.278.621,2.878,14.168-3.267a2.048,2.048,0,0,1,1.586.265A1.947,1.947,0,0,1,109.644,213.372Z" transform="translate(-87.675 -199.791)" fill="#fff"/>
      </g>
      <circle id="Ellipse_3540" data-name="Ellipse 3540" cx="21.329" cy="21.329" r="21.329" transform="matrix(0.645, -0.764, 0.764, 0.645, 94.114, 139.871)" fill="#fd9933"/>
      <circle id="Ellipse_3541" data-name="Ellipse 3541" cx="21.329" cy="21.329" r="21.329" transform="matrix(0.645, -0.764, 0.764, 0.645, 94.114, 139.871)" opacity="0.4"/>
      <circle id="Ellipse_3542" data-name="Ellipse 3542" cx="17.909" cy="17.909" r="17.909" transform="translate(98.959 139.723) rotate(-50.42)" opacity="0.2"/>
      <circle id="Ellipse_3543" data-name="Ellipse 3543" cx="17.193" cy="17.193" r="17.193" transform="translate(100.757 141.709) rotate(-52.61)" fill="#fd9933"/>
      <circle id="Ellipse_3544" data-name="Ellipse 3544" cx="17.193" cy="17.193" r="17.193" transform="translate(100.757 141.709) rotate(-52.61)" opacity="0.4"/>
      <path id="Path_43881" data-name="Path 43881" d="M195.941,153.739l-1.213,4.841a1.36,1.36,0,0,1-.666.875,1.456,1.456,0,0,1-1.128.164l-4.226-1.066-.858,3.385a1.365,1.365,0,0,1-.666.88,1.388,1.388,0,0,1-1.083.164,1.45,1.45,0,0,1-.908-.66,1.388,1.388,0,0,1-.169-1.095l.863-3.442-4.232-1.033a1.394,1.394,0,0,1-.88-.655,1.371,1.371,0,0,1-.169-1.089,1.388,1.388,0,0,1,.655-.892,1.405,1.405,0,0,1,1.095-.158l9.874,2.477.508-2.009-9.846-2.471a1.371,1.371,0,0,1-.886-.649,1.349,1.349,0,0,1-.158-1.095l1.207-4.824a1.433,1.433,0,0,1,1.749-1.044l4.187,1.049.858-3.385a1.416,1.416,0,0,1,1.794-1.055,1.349,1.349,0,0,1,.869.649,1.394,1.394,0,0,1,.164,1.089l-.858,3.385,4.288,1.078a1.427,1.427,0,0,1,.9.671,1.377,1.377,0,0,1,.181,1.083,1.456,1.456,0,0,1-.677.9,1.439,1.439,0,0,1-1.129.169L185.5,147.5l-.5,2,9.841,2.466a1.427,1.427,0,0,1,.9.671,1.349,1.349,0,0,1,.192,1.1Z" transform="translate(-64.721 -14.643)" fill="#fd9933"/>
      <g id="Group_9195" data-name="Group 9195" transform="translate(115.838 126.25)" opacity="0.7">
        <path id="Path_43882" data-name="Path 43882" d="M195.941,153.739l-1.213,4.841a1.36,1.36,0,0,1-.666.875,1.456,1.456,0,0,1-1.128.164l-4.226-1.066-.858,3.385a1.365,1.365,0,0,1-.666.88,1.388,1.388,0,0,1-1.083.164,1.45,1.45,0,0,1-.908-.66,1.388,1.388,0,0,1-.169-1.095l.863-3.442-4.232-1.033a1.394,1.394,0,0,1-.88-.655,1.371,1.371,0,0,1-.169-1.089,1.388,1.388,0,0,1,.655-.892,1.405,1.405,0,0,1,1.095-.158l9.874,2.477.508-2.009-9.846-2.471a1.371,1.371,0,0,1-.886-.649,1.349,1.349,0,0,1-.158-1.095l1.207-4.824a1.433,1.433,0,0,1,1.749-1.044l4.187,1.049.858-3.385a1.416,1.416,0,0,1,1.794-1.055,1.349,1.349,0,0,1,.869.649,1.394,1.394,0,0,1,.164,1.089l-.858,3.385,4.288,1.078a1.427,1.427,0,0,1,.9.671,1.377,1.377,0,0,1,.181,1.083,1.456,1.456,0,0,1-.677.9,1.439,1.439,0,0,1-1.129.169L185.5,147.5l-.5,2,9.841,2.466a1.427,1.427,0,0,1,.9.671,1.349,1.349,0,0,1,.192,1.1Z" transform="translate(-180.559 -140.892)" fill="#fff"/>
      </g>
    </g>
    <g id="freepik--Character--inject-2" transform="translate(1024.693 231.61)">
      <path id="Path_43883" data-name="Path 43883" d="M288.945,166.531c-2.191,6.184-4.622,12.164-7.2,18.144a155.9,155.9,0,0,1-8.966,17.691q-.679,1.1-1.414,2.191L271,205.1l-.49.675c-.333.425-.647.795-.924,1.155a48.238,48.238,0,0,1-3.7,3.7c-2.468,2.283-4.982,4.353-7.524,6.4-5.1,4.048-10.315,7.838-15.713,11.434l-3.226-4,13.587-13.393c2.246-2.228,4.474-4.474,6.553-6.72,1.026-1.118,2.024-2.265,2.847-3.318.2-.259.379-.518.536-.739l.194-.314.268-.481c.361-.638.739-1.257,1.091-1.913,2.828-5.315,5.324-11.092,7.727-16.952s4.714-11.766,6.932-17.626Z" transform="translate(-1.089 -3.982)" fill="#ac5803"/>
      <path id="Path_43884" data-name="Path 43884" d="M294.008,161.6c2.1,6.137-10.232,24.189-10.232,24.189L272,179.237a137.717,137.717,0,0,1,7.1-16.453C283.221,154.983,291.706,154.863,294.008,161.6Z" transform="translate(-3.555 -3.508)" fill="#fd9933"/>
      <path id="Path_43885" data-name="Path 43885" d="M294.008,161.6c2.1,6.137-10.232,24.189-10.232,24.189L272,179.237a137.717,137.717,0,0,1,7.1-16.453C283.221,154.983,291.706,154.863,294.008,161.6Z" transform="translate(-3.555 -3.508)" fill="#fff" opacity="0.7"/>
      <path id="Path_43886" data-name="Path 43886" d="M294.762,162.79c-2.643-1.266-5.684-.2-8.892,4.862a54.9,54.9,0,0,0-6.23,15.935l4.723,2.616S295.741,169.528,294.762,162.79Z" transform="translate(-4.133 -3.93)" fill="#fd9933" opacity="0.31"/>
      <path id="Path_43887" data-name="Path 43887" d="M286.791,156.746s-8.8,20.7-2.459,59.23h36.649c.453-5.629-2.135-33.072,4.215-59.581a93.574,93.574,0,0,0-12.219-1.553,136.705,136.705,0,0,0-15.574,0,70.657,70.657,0,0,0-10.611,1.9Z" transform="translate(-4.314 -3.348)" fill="#fd9933"/>
      <path id="Path_43888" data-name="Path 43888" d="M286.791,156.746s-8.8,20.7-2.459,59.23h36.649c.453-5.629-2.135-33.072,4.215-59.581a93.574,93.574,0,0,0-12.219-1.553,136.705,136.705,0,0,0-15.574,0,70.657,70.657,0,0,0-10.611,1.9Z" transform="translate(-4.314 -3.348)" fill="#fff" opacity="0.7"/>
      <path id="Path_43889" data-name="Path 43889" d="M336.919,397.748l-5.426,4.862L321.15,391.842l5.435-4.862Z" transform="translate(-7.275 -20.936)" fill="#e4897b"/>
      <path id="Path_43890" data-name="Path 43890" d="M317.446,408.271H310.6l-.887-15.861h6.849Z" transform="translate(-6.409 -21.347)" fill="#e4897b"/>
      <path id="Path_43891" data-name="Path 43891" d="M321.16,391.842l5.324,5.555,5.435-4.871-5.324-5.546Z" transform="translate(-7.276 -20.936)" fill="#ce6f64"/>
      <path id="Path_43892" data-name="Path 43892" d="M316.559,392.41H309.71l.462,8.18h6.849Z" transform="translate(-6.409 -21.347)" fill="#ce6f64"/>
      <path id="Path_43893" data-name="Path 43893" d="M283.723,221s-7.219,49.968-9.677,77.161c-1.978,21.823,45.208,86.885,45.208,86.885l9.123-8.587s-34.458-58.333-31.805-82.624c2.57-23.524,11.277-72.863,11.277-72.863Z" transform="translate(-3.705 -8.37)" fill="#fd9933"/>
      <path id="Path_43894" data-name="Path 43894" d="M283.723,221s-7.219,49.968-9.677,77.161c-1.978,21.823,45.208,86.885,45.208,86.885l9.123-8.587s-34.458-58.333-31.805-82.624c2.57-23.524,11.277-72.863,11.277-72.863Z" transform="translate(-3.705 -8.37)" opacity="0.7"/>
      <path id="Path_43895" data-name="Path 43895" d="M298.1,295.364c1.322-12.118,4.28-31.1,6.821-46.65-1.331-2.607-5.065-7.884-5.065-7.884-3.346,11.563-10.62,55.153-.24,114.022,10.814,17.432,21.167,31.722,21.167,31.722L322.2,364.1C312.209,345.3,296.265,312.159,298.1,295.364Z" transform="translate(-5.239 -9.874)" opacity="0.2"/>
      <path id="Path_43896" data-name="Path 43896" d="M298.6,221s-.647,52.362.462,71.985c1.211,21.481,7.311,92.662,7.311,92.662H318.93s-.379-69.443.361-90.7c.823-23.108,2.949-73.944,2.949-73.944Z" transform="translate(-5.554 -8.373)" fill="#fd9933"/>
      <path id="Path_43897" data-name="Path 43897" d="M298.6,221s-.647,52.362.462,71.985c1.211,21.481,7.311,92.662,7.311,92.662H318.93s-.379-69.443.361-90.7c.823-23.108,2.949-73.944,2.949-73.944Z" transform="translate(-5.554 -8.373)" opacity="0.7"/>
      <path id="Path_43898" data-name="Path 43898" d="M308.958,408.72h7.7a.49.49,0,0,1,.508.462l.379,6.091a1.211,1.211,0,0,1-1.2,1.22c-2.68-.046-3.965-.2-7.348-.2-2.08,0-10.935.222-13.809.222s-2.773-2.847-1.581-3.106c5.463-1.155,12.238-2.773,14.179-4.27a1.932,1.932,0,0,1,1.174-.416Z" transform="translate(-5.13 -22.582)" fill="#263238"/>
      <path id="Path_43899" data-name="Path 43899" d="M329.729,401.405l6.6-4.446a.61.61,0,0,1,.758,0l5.047,5.093a1.017,1.017,0,0,1-.24,1.544,69.713,69.713,0,0,0-9.659,8.393c-2.773,3.152-4.27,3.6-10.74,3.6-2.995,0-4.686-2.523-3.466-2.912,10.777-3.411,7.894-4.9,10.519-9.9A3.7,3.7,0,0,1,329.729,401.405Z" transform="translate(-7.008 -21.682)" fill="#263238"/>
      <path id="Path_43900" data-name="Path 43900" d="M240.525,228.56l-7.145.25,1.5,5.6s7.468.665,8.134-1.59Z" transform="translate(-0.631 -8.945)" fill="#d6710a"/>
      <path id="Path_43901" data-name="Path 43901" d="M225.04,232.167l5.01,2.921,4.2-.656-1.5-5.6Z" transform="translate(0 -8.965)" fill="#d57616"/>
      <path id="Path_43902" data-name="Path 43902" d="M319.851,163.289c-.758,4.363.25,14.789,3.993,26.86a176.24,176.24,0,0,1,3.6-30.77v-.055C325.036,159.084,320.581,159.195,319.851,163.289Z" transform="translate(-7.159 -3.698)" fill="#fd9933" opacity="0.31"/>
      <path id="Path_43903" data-name="Path 43903" d="M313.182,135.88c-1.155,5.01-2.459,14.2.924,17.562,0,0-1.46,4.15-10.777,4.15-10.241,0-4.8-4.15-4.8-4.15,5.638-1.331,5.638-5.481,4.8-9.372Z" transform="translate(-5.453 -1.929)" fill="#e57d13"/>
      <path id="Path_43904" data-name="Path 43904" d="M303.333,159.35,300.56,162.3l1.359,2.847,2.209.1,1.886-2.717Z" transform="translate(-5.716 -3.706)" fill="#fd9933"/>
      <path id="Path_43905" data-name="Path 43905" d="M309.682,139.49l-5.832,4.825a16.041,16.041,0,0,1,.388,2.773c2.144-.305,5.158-2.653,5.463-4.89a7.284,7.284,0,0,0-.019-2.708Z" transform="translate(-5.966 -2.203)" fill="#e3801a"/>
      <path id="Path_43906" data-name="Path 43906" d="M301,117.484c-3.5,1.192-6.3,10.482-2.218,12.94S307.658,115.219,301,117.484Z" transform="translate(-5.429 -0.522)" fill="#263238"/>
      <path id="Path_43907" data-name="Path 43907" d="M315.163,129.228c-2.089,6.47-2.976,10.38-7.191,13.033a8.864,8.864,0,0,1-13.652-7.746c.083-6.221,3.485-15.8,10.648-17a8.975,8.975,0,0,1,10.2,11.711Z" transform="translate(-5.244 -0.527)" fill="#ed851b"/>
      <path id="Path_43908" data-name="Path 43908" d="M319.981,117.886c-2.089,5.047,2.773.832,1.516,6.821-.813,3.9-7.857,13.245-10.574,12.395s-2.69-7.478.776-12.164c2-2.69-2.32-5.74-12.016-5.416s-15.556-5.13-2.671-9.132c0,0-4.751,2.773-1.932,3.7C299.073,115.575,324.168,107.774,319.981,117.886Z" transform="translate(-4.886)" fill="#263238"/>
      <path id="Path_43909" data-name="Path 43909" d="M320.47,120.622c-.1,0,2.172-.564,3.383-4.622C323.853,116.065,323.455,122.045,320.47,120.622Z" transform="translate(-7.223 -0.425)" fill="#263238"/>
      <path id="Path_43910" data-name="Path 43910" d="M300.537,111.36c-5.962,1.849-3.494,3.928-1.026,4.446l5.657-2.218C296.572,114.724,300.537,111.36,300.537,111.36Z" transform="translate(-5.435 -0.073)" fill="#263238"/>
      <path id="Path_43911" data-name="Path 43911" d="M317.551,138.342a6.766,6.766,0,0,1-4.622,1.913c-2.283,0-2.773-2.163-1.544-3.974,1.091-1.627,3.586-3.586,5.6-2.708S319.067,136.853,317.551,138.342Z" transform="translate(-6.486 -1.738)" fill="#f28a21"/>
      <path id="Path_43912" data-name="Path 43912" d="M305.368,129.718c-.139.536-.536.924-.924.832s-.527-.582-.388-1.118.536-.924.924-.823S305.507,129.182,305.368,129.718Z" transform="translate(-5.977 -1.378)" fill="#263238"/>
      <path id="Path_43913" data-name="Path 43913" d="M298.768,128.268c-.139.536-.536.924-.924.832s-.527-.573-.388-1.109.527-.924.924-.832S298.879,127.732,298.768,128.268Z" transform="translate(-5.477 -1.268)" fill="#263238"/>
      <path id="Path_43914" data-name="Path 43914" d="M300.6,129.11a20.861,20.861,0,0,1-3.7,4.021,3.161,3.161,0,0,0,2.459,1.044Z" transform="translate(-5.439 -1.417)" fill="#de5753"/>
      <path id="Path_43915" data-name="Path 43915" d="M301.9,136.584a5.112,5.112,0,0,1-1.137-.129.161.161,0,0,1,.074-.314,4.621,4.621,0,0,0,3.919-.924.163.163,0,0,1,.231.231,4.7,4.7,0,0,1-3.087,1.137Z" transform="translate(-5.722 -1.876)" fill="#263238"/>
      <path id="Path_43916" data-name="Path 43916" d="M307.909,127.949a.314.314,0,0,1-.3-.194,2.5,2.5,0,0,0-1.756-1.488.323.323,0,0,1-.277-.37.333.333,0,0,1,.37-.277,3.124,3.124,0,0,1,2.255,1.849.314.314,0,0,1-.166.425A.323.323,0,0,1,307.909,127.949Z" transform="translate(-6.096 -1.153)" fill="#263238"/>
      <path id="Path_43917" data-name="Path 43917" d="M296.624,125.342a.323.323,0,0,1-.2-.074.333.333,0,0,1-.046-.462,3.392,3.392,0,0,1,2.717-1.266.323.323,0,0,1,.3.351.314.314,0,0,1-.351.3,2.717,2.717,0,0,0-2.163,1.035.314.314,0,0,1-.25.12Z" transform="translate(-5.394 -0.995)" fill="#263238"/>
      <path id="Path_43918" data-name="Path 43918" d="M329.932,161.65c.721,1.118,1.322,2.107,1.932,3.18s1.192,2.107,1.765,3.18c1.128,2.135,2.191,4.317,3.161,6.544a68.122,68.122,0,0,1,4.557,14.225l.092.471.046.231.065.388a10.589,10.589,0,0,1,.12,1.562,13.747,13.747,0,0,1-.277,2.607,22,22,0,0,1-1.349,4.122,44.089,44.089,0,0,1-3.7,6.664,77.642,77.642,0,0,1-9.132,11.212l-4.021-3.226c2.237-3.9,4.464-7.949,6.331-11.914a45.291,45.291,0,0,0,2.348-5.86,13.179,13.179,0,0,0,.536-2.57,3.845,3.845,0,0,0,0-.86c0-.083,0-.157-.055-.166s0,0,0-.046l-.055-.185-.111-.379a58.664,58.664,0,0,0-2.08-6.008c-.813-2.006-1.719-4-2.671-5.99s-1.978-3.947-3.032-5.906c-.518-.98-1.063-1.95-1.608-2.912l-1.627-2.773Z" transform="translate(-7.277 -3.88)" fill="#de7d1a"/>
      <path id="Path_43919" data-name="Path 43919" d="M307.535,409.858a1.849,1.849,0,0,1-1.294-.361.924.924,0,0,1-.2-.869.619.619,0,0,1,.379-.453c.841-.333,2.773,1,2.995,1.146a.148.148,0,0,1,.065.166.157.157,0,0,1-.12.129,8.779,8.779,0,0,1-1.821.24Zm-.8-1.414a.609.609,0,0,0-.194,0,.268.268,0,0,0-.176.222.582.582,0,0,0,.111.573c.314.314,1.211.351,2.44.111a5.49,5.49,0,0,0-2.181-.9Z" transform="translate(-6.128 -22.537)" fill="#fff"/>
      <path id="Path_43920" data-name="Path 43920" d="M309.455,409.5h-.083c-.684-.407-1.7-1.849-1.544-2.588a.61.61,0,0,1,.582-.49.823.823,0,0,1,.675.222c.693.675.536,2.644.536,2.727a.166.166,0,0,1-.092.129Zm-.924-2.773h-.074a.271.271,0,0,0-.3.231c-.1.49.573,1.571,1.165,2.07a3.558,3.558,0,0,0-.444-2.163.49.49,0,0,0-.351-.139Z" transform="translate(-6.265 -22.407)" fill="#fff"/>
      <path id="Path_43921" data-name="Path 43921" d="M325.837,405.663a1.2,1.2,0,0,1-.5-.092.813.813,0,0,1-.49-.573.471.471,0,0,1,.1-.453c.619-.749,3.864-.527,4.233-.5a.157.157,0,0,1,.148.12.166.166,0,0,1-.074.176A8.634,8.634,0,0,1,325.837,405.663Zm1.96-1.349c-1.137,0-2.329.111-2.6.434a.157.157,0,0,0,0,.166.49.49,0,0,0,.3.36c.518.213,1.682-.139,3.152-.924Z" transform="translate(-7.553 -22.224)" fill="#fff"/>
      <path id="Path_43922" data-name="Path 43922" d="M329.271,404.216h0c-.924,0-3-.712-3.161-1.451a.629.629,0,0,1,.444-.656c1.59-.749,2.819,1.765,2.875,1.849a.213.213,0,0,1,0,.166.176.176,0,0,1-.157.092Zm-2.135-1.913a1.008,1.008,0,0,0-.453.1c-.194.092-.287.194-.268.287.092.434,1.59,1.044,2.57,1.174C328.689,403.366,327.977,402.3,327.136,402.3Z" transform="translate(-7.65 -22.071)" fill="#fff"/>
      <path id="Path_43923" data-name="Path 43923" d="M324.784,215.282,318,214.09l3.5,7.9s6.221,0,5.943-3.254Z" transform="translate(-7.037 -7.85)" fill="#d17517"/>
      <path id="Path_43924" data-name="Path 43924" d="M312.45,218.065l3.207,6.378,5.389-2.449-3.5-7.9Z" transform="translate(-6.616 -7.85)" fill="#e68119"/>
      <path id="Path_43925" data-name="Path 43925" d="M332.322,388.285l-10.232,9.631-3.3-3.54L330.5,383.71Z" transform="translate(-7.096 -20.689)" fill="#fd9933"/>
      <path id="Path_43926" data-name="Path 43926" d="M332.322,388.285l-10.232,9.631-3.3-3.54L330.5,383.71Z" transform="translate(-7.096 -20.689)" fill="#fff" opacity="0.6"/>
      <path id="Path_43927" data-name="Path 43927" d="M319.978,398.739h-13.56l-.749-4.769,14.964.749Z" transform="translate(-6.103 -21.465)" fill="#fd9933"/>
      <path id="Path_43928" data-name="Path 43928" d="M319.978,398.739h-13.56l-.749-4.769,14.964.749Z" transform="translate(-6.103 -21.465)" fill="#fff" opacity="0.6"/>
      <path id="Path_43929" data-name="Path 43929" d="M327.92,156.53c6.47.924,13.1,23.4,13.1,23.4l-13.865,7.69s-5.629-10.685-8.319-18.616C316.015,160.7,321,155.513,327.92,156.53Z" transform="translate(-7.039 -3.483)" fill="#fd9933"/>
      <path id="Path_43930" data-name="Path 43930" d="M327.92,156.53c6.47.924,13.1,23.4,13.1,23.4l-13.865,7.69s-5.629-10.685-8.319-18.616C316.015,160.7,321,155.513,327.92,156.53Z" transform="translate(-7.039 -3.483)" fill="#fff" opacity="0.7"/>
      <path id="Path_43931" data-name="Path 43931" d="M303.333,159.35,300.56,162.3l1.359,2.847,2.209.1,1.886-2.717Z" transform="translate(-5.716 -3.706)" opacity="0.2"/>
      <path id="Path_43932" data-name="Path 43932" d="M301.841,165.07s-5.259,21.786-5.463,26.315c-.287,6.23,2.32,16.869,2.32,16.869s3.7-8.846,4.455-17.063.194-21.509.536-26.121Z" transform="translate(-5.398 -4.139)" fill="#fd9933"/>
      <path id="Path_43933" data-name="Path 43933" d="M301.841,165.07s-5.259,21.786-5.463,26.315c-.287,6.23,2.32,16.869,2.32,16.869s3.7-8.846,4.455-17.063.194-21.509.536-26.121Z" transform="translate(-5.398 -4.139)" opacity="0.2"/>
      <path id="Path_43934" data-name="Path 43934" d="M303.56,158.847a12.017,12.017,0,0,1,1.775,5.648s11.535-4.067,10.99-10.029c0,0-1.636-.971-2.671-1.756C313.653,152.71,313.265,156.463,303.56,158.847Z" transform="translate(-5.944 -3.203)" fill="#fd9933"/>
      <path id="Path_43935" data-name="Path 43935" d="M303.56,158.847a12.017,12.017,0,0,1,1.775,5.648s11.535-4.067,10.99-10.029c0,0-1.636-.971-2.671-1.756C313.653,152.71,313.265,156.463,303.56,158.847Z" transform="translate(-5.944 -3.203)" fill="#fff" opacity="0.6"/>
      <path id="Path_43936" data-name="Path 43936" d="M303.052,158.936a16.231,16.231,0,0,0-2.255,5.287s-5.222-3.531-3.651-9.419a19.492,19.492,0,0,1,2.949-.924A4.522,4.522,0,0,0,303.052,158.936Z" transform="translate(-5.436 -3.292)" fill="#fd9933"/>
      <path id="Path_43937" data-name="Path 43937" d="M303.052,158.936a16.231,16.231,0,0,0-2.255,5.287s-5.222-3.531-3.651-9.419a19.492,19.492,0,0,1,2.949-.924A4.522,4.522,0,0,0,303.052,158.936Z" transform="translate(-5.436 -3.292)" fill="#fff" opacity="0.6"/>
    </g>
  </g>
</svg>
