<svg xmlns="http://www.w3.org/2000/svg" width="48" height="48" viewBox="0 0 48 48">
  <g id="Group_9296" data-name="Group 9296" transform="translate(15498 558)">
    <circle id="Ellipse_3550" data-name="Ellipse 3550" cx="24" cy="24" r="24" transform="translate(-15498 -558)" fill="#fd9933" opacity="0.11"/>
    <g id="filter_drama_black_24dp" transform="translate(-15486 -546)">
      <path id="Path_43972" data-name="Path 43972" d="M0,0H24V24H0Z" fill="none"/>
      <path id="Path_43973" data-name="Path 43973" d="M19.35,10.04a7.486,7.486,0,0,0-13.99-2A6,6,0,0,0,6,20H19a4.986,4.986,0,0,0,.35-9.96ZM19,18H6a4,4,0,1,1,4-4h2A5.993,5.993,0,0,0,7.6,8.22a5.49,5.49,0,0,1,9.9,3.28V12H19a3,3,0,0,1,0,6Z" fill="#fd9933"/>
    </g>
  </g>
</svg>
