<svg xmlns="http://www.w3.org/2000/svg" xmlns:xlink="http://www.w3.org/1999/xlink" width="18" height="18" viewBox="0 0 18 18">
  <defs>
    <clipPath id="clip-path">
      <rect id="Rectangle_14821" data-name="Rectangle 14821" width="18" height="18" transform="translate(-20451 -2182)" fill="#fff"/>
    </clipPath>
  </defs>
  <g id="Mask_Group_8" data-name="Mask Group 8" transform="translate(20451 2182)" clip-path="url(#clip-path)">
    <g id="article_black_24dp" transform="translate(-20451 -2182)">
      <path id="Path_43538" data-name="Path 43538" d="M0,0H18V18H0Z" fill="none"/>
      <path id="Path_43539" data-name="Path 43539" d="M14.25,2.25H3.75a1.5,1.5,0,0,0-1.5,1.5v10.5a1.5,1.5,0,0,0,1.5,1.5h10.5a1.5,1.5,0,0,0,1.5-1.5V3.75A1.5,1.5,0,0,0,14.25,2.25ZM10.5,12.75H5.25v-1.5H10.5Zm2.25-3H5.25V8.25h7.5Zm0-3H5.25V5.25h7.5Z" fill="#657992"/>
    </g>
  </g>
</svg>
